<?xml version="1.0" encoding="utf-8"?>
<!-- Generator: Adobe Illustrator 18.1.0, SVG Export Plug-In . SVG Version: 6.00 Build 0)  -->
<!DOCTYPE svg PUBLIC "-//W3C//DTD SVG 1.1//EN" "http://www.w3.org/Graphics/SVG/1.1/DTD/svg11.dtd">
<svg version="1.1" id="Layer_1" xmlns="http://www.w3.org/2000/svg" xmlns:xlink="http://www.w3.org/1999/xlink" x="0px" y="0px" width="1048px" height="1047.8px"
	 viewBox="195.9 17.3 1048 1047.8" enable-background="new 195.9 17.3 1048 1047.8" xml:space="preserve">
<g>
	
		<linearGradient id="SVGID_1_" gradientUnits="userSpaceOnUse" x1="445.8836" y1="1100.4283" x2="104.0488" y2="508.353" gradientTransform="matrix(1.9636 0 0 -1.9636 180 2120.7273)">
		<stop  offset="0" style="stop-color:#FFFFFF"/>
		<stop  offset="0.4946" style="stop-color:#69BD45"/>
		<stop  offset="1" style="stop-color:#F1F1F1"/>
	</linearGradient>
	<path fill="url(#SVGID_1_)" d="M1122.7,1065.1H317.1c-66.6,0-121.2-54.6-121.2-121.2V138.4c0-66.6,54.6-121.2,121.2-121.2h805.7
		c66.6,0,121.2,54.6,121.2,121.2v805.7C1243.9,1010.7,1189.3,1065.1,1122.7,1065.1z"/>
</g>
<path opacity="0.29" fill="#FFFFFF" enable-background="new    " d="M1122.7,19H317.1c-66.6,0-121,54.4-121,121.2v298.9
	c139,58.1,324.6,93.5,528.2,93.5c199.5,0,381.5-34,519.6-89.9V140.2C1243.9,73.4,1189.3,19,1122.7,19z"/>
<path fill="#FFFFFF" d="M342.6,470.5v142.2c0,22.2,17.9,40.1,40.1,40.1h99c8.8,0,17.7,2.9,24.7,8.4l114.9,89.7
	c26.3,20.6,64.6,1.8,64.6-31.6V363.7c0-33.4-38.5-52-64.6-31.6l-114.9,89.7c-7.1,5.5-15.7,8.4-24.7,8.4h-99
	C360.5,430.4,342.6,448.3,342.6,470.5z"/>
<path fill="#FFFFFF" d="M894.8,218.9l-1.4,2.4c-11.2,17.7-6.9,41,10,53.6c65,48.5,111.1,151,111.1,266.7
	c0,114.9-45.6,217-110.2,265.9c-16.5,12.4-20.8,35.3-9.8,53l1.4,2.4c12.4,20,39.3,25.1,57.9,11c85.6-64.6,143.5-189.1,143.5-332.1
	c0-143.9-58.7-269.2-145.1-333.2C933.6,194.4,907.1,199.3,894.8,218.9z"/>
<path fill="#FFFFFF" d="M802.5,364.3l-1,1.6c-9.2,14.3-8.1,33,2.6,46.5c25.5,32.8,41.6,78.9,41.6,129.2c0,48.9-15.3,94.1-39.7,126.9
	c-9.8,13.4-11,31.2-2.2,45.4l1,1.6c14.7,23.6,48.5,25.7,65.6,3.7c36.1-46.3,58.3-108.8,58.3-177.5c0-70.5-23.4-134.3-61.1-180.9
	C850.2,339.3,817.2,341.1,802.5,364.3z"/>
</svg>
