<?xml version="1.0" encoding="utf-8"?>
<!-- Generator: Adobe Illustrator 18.1.0, SVG Export Plug-In . SVG Version: 6.00 Build 0)  -->
<!DOCTYPE svg PUBLIC "-//W3C//DTD SVG 1.1//EN" "http://www.w3.org/Graphics/SVG/1.1/DTD/svg11.dtd">
<svg version="1.1" id="Layer_1" xmlns="http://www.w3.org/2000/svg" xmlns:xlink="http://www.w3.org/1999/xlink" x="0px" y="0px"
	 viewBox="0 0 534.7 534.7" enable-background="new 0 0 534.7 534.7" xml:space="preserve">
<g>
	<linearGradient id="SVGID_1_" gradientUnits="userSpaceOnUse" x1="438.2566" y1="-28.7368" x2="96.3937" y2="563.3871">
		<stop  offset="0" style="stop-color:#FFFFFF"/>
		<stop  offset="0.4946" style="stop-color:#EB2427"/>
		<stop  offset="1" style="stop-color:#F2F2F2"/>
	</linearGradient>
	<path fill="url(#SVGID_1_)" d="M472.5,534.2H62.2c-33.9,0-61.7-27.8-61.7-61.7V62.2c0-33.9,27.8-61.7,61.7-61.7h410.3
		c33.9,0,61.7,27.8,61.7,61.7v410.3C534.2,506.4,506.4,534.2,472.5,534.2z"/>
	<linearGradient id="SVGID_2_" gradientUnits="userSpaceOnUse" x1="0" y1="267.3252" x2="534.6504" y2="267.3252">
		<stop  offset="0" style="stop-color:#FFFFFF"/>
		<stop  offset="0.4892" style="stop-color:#C4E7F2"/>
		<stop  offset="1" style="stop-color:#F2F2F2"/>
	</linearGradient>
	<path fill="none" stroke="url(#SVGID_2_)" stroke-miterlimit="10" d="M472.5,534.2H62.2c-33.9,0-61.7-27.8-61.7-61.7V62.2
		c0-33.9,27.8-61.7,61.7-61.7h410.3c33.9,0,61.7,27.8,61.7,61.7v410.3C534.2,506.4,506.4,534.2,472.5,534.2z"/>
</g>
<path opacity="0.29" fill="#FFFFFF" d="M472.5,1.4H62.2C28.3,1.4,0.5,29.2,0.5,63.1v152.2c70.8,29.6,165.3,47.6,269,47.6
	c101.6,0,194.3-17.3,264.6-45.8v-154C534.2,29.2,506.4,1.4,472.5,1.4z"/>
<g>
	<circle cx="153.8" cy="155.3" r="53.2"/>
	<g>
		<linearGradient id="SVGID_3_" gradientUnits="userSpaceOnUse" x1="74.9762" y1="155.2644" x2="232.5421" y2="155.2644">
			<stop  offset="0" style="stop-color:#5C5C5C"/>
			<stop  offset="0.9677" style="stop-color:#231F20"/>
		</linearGradient>
		<circle fill="none" stroke="url(#SVGID_3_)" stroke-width="16" stroke-miterlimit="10" cx="153.8" cy="155.3" r="70.8"/>
		
			<linearGradient id="SVGID_4_" gradientUnits="userSpaceOnUse" x1="-127.3799" y1="284.4829" x2="8.4493" y2="284.4829" gradientTransform="matrix(-5.705702e-002 -0.9984 0.9984 -5.705702e-002 -133.6533 112.1277)">
			<stop  offset="0" style="stop-color:#D5D5D5"/>
			<stop  offset="0.9677" style="stop-color:#231F20"/>
		</linearGradient>
		<circle fill="none" stroke="url(#SVGID_4_)" stroke-width="40" stroke-miterlimit="10" cx="153.8" cy="155.3" r="47.9"/>
	</g>
</g>
<g>
	<circle cx="391.4" cy="155.3" r="53.2"/>
	<g>
		
			<linearGradient id="SVGID_5_" gradientUnits="userSpaceOnUse" x1="172.4559" y1="-581.7377" x2="330.0218" y2="-581.7377" gradientTransform="matrix(4.489700e-011 1 -1 4.489700e-011 -190.3372 -95.9745)">
			<stop  offset="0" style="stop-color:#5C5C5C"/>
			<stop  offset="0.9677" style="stop-color:#231F20"/>
		</linearGradient>
		<circle fill="none" stroke="url(#SVGID_5_)" stroke-width="16" stroke-miterlimit="10" cx="391.4" cy="155.3" r="70.8"/>
		
			<linearGradient id="SVGID_6_" gradientUnits="userSpaceOnUse" x1="602.8596" y1="423.855" x2="738.6888" y2="423.855" gradientTransform="matrix(0.9984 -5.705702e-002 5.705702e-002 0.9984 -302.4649 -229.6278)">
			<stop  offset="0" style="stop-color:#D5D5D5"/>
			<stop  offset="0.9677" style="stop-color:#231F20"/>
		</linearGradient>
		<circle fill="none" stroke="url(#SVGID_6_)" stroke-width="40" stroke-miterlimit="10" cx="391.4" cy="155.3" r="47.9"/>
	</g>
</g>
<linearGradient id="SVGID_7_" gradientUnits="userSpaceOnUse" x1="130.3251" y1="155.4351" x2="176.3251" y2="155.4351" gradientTransform="matrix(-0.7071 0.7071 -0.7071 -0.7071 371.6516 156.927)">
	<stop  offset="0" style="stop-color:#3D3D3D"/>
	<stop  offset="1" style="stop-color:#231F20"/>
</linearGradient>
<circle fill="none" stroke="url(#SVGID_7_)" stroke-width="20" stroke-linecap="round" stroke-miterlimit="10" cx="153.3" cy="155.4" r="13"/>
<g>
	<circle cx="153.8" cy="370.6" r="53.2"/>
	<g>
		
			<linearGradient id="SVGID_8_" gradientUnits="userSpaceOnUse" x1="-662.0259" y1="510.7674" x2="-504.46" y2="510.7674" gradientTransform="matrix(4.489700e-011 -1 1 4.489700e-011 -357.0083 -212.6372)">
			<stop  offset="0" style="stop-color:#5C5C5C"/>
			<stop  offset="0.9677" style="stop-color:#231F20"/>
		</linearGradient>
		<circle fill="none" stroke="url(#SVGID_8_)" stroke-width="16" stroke-miterlimit="10" cx="153.8" cy="370.6" r="70.8"/>
		
			<linearGradient id="SVGID_9_" gradientUnits="userSpaceOnUse" x1="-440.2527" y1="-471.6025" x2="-304.4235" y2="-471.6025" gradientTransform="matrix(-0.9984 5.705702e-002 -5.705702e-002 -0.9984 -244.8807 -78.9839)">
			<stop  offset="0" style="stop-color:#D5D5D5"/>
			<stop  offset="0.9677" style="stop-color:#231F20"/>
		</linearGradient>
		<circle fill="none" stroke="url(#SVGID_9_)" stroke-width="40" stroke-miterlimit="10" cx="153.8" cy="370.6" r="47.9"/>
	</g>
</g>
<g>
	<circle cx="391.4" cy="370.6" r="53.2"/>
	<g>
		
			<linearGradient id="SVGID_10_" gradientUnits="userSpaceOnUse" x1="-564.5462" y1="-226.2347" x2="-406.9803" y2="-226.2347" gradientTransform="matrix(-1 0 0 -1 -94.3627 144.3711)">
			<stop  offset="0" style="stop-color:#5C5C5C"/>
			<stop  offset="0.9677" style="stop-color:#231F20"/>
		</linearGradient>
		<circle fill="none" stroke="url(#SVGID_10_)" stroke-width="16" stroke-miterlimit="10" cx="391.4" cy="370.6" r="70.8"/>
		
			<linearGradient id="SVGID_11_" gradientUnits="userSpaceOnUse" x1="289.9868" y1="-332.2304" x2="425.8161" y2="-332.2304" gradientTransform="matrix(5.705702e-002 0.9984 -0.9984 5.705702e-002 39.2906 32.2434)">
			<stop  offset="0" style="stop-color:#D5D5D5"/>
			<stop  offset="0.9677" style="stop-color:#231F20"/>
		</linearGradient>
		<circle fill="none" stroke="url(#SVGID_11_)" stroke-width="40" stroke-miterlimit="10" cx="391.4" cy="370.6" r="47.9"/>
	</g>
</g>
<linearGradient id="SVGID_12_" gradientUnits="userSpaceOnUse" x1="114.1291" y1="-165.0583" x2="160.1291" y2="-165.0583" gradientTransform="matrix(-0.7028 0.7114 -0.7114 -0.7028 370.3417 157.0521)">
	<stop  offset="0" style="stop-color:#3D3D3D"/>
	<stop  offset="1" style="stop-color:#231F20"/>
</linearGradient>
<circle fill="none" stroke="url(#SVGID_12_)" stroke-width="20" stroke-linecap="round" stroke-miterlimit="10" cx="391.4" cy="370.6" r="13"/>
<path fill="none" stroke="#FFFFFF" stroke-width="30" stroke-linecap="round" stroke-miterlimit="10" d="M157.3,158.1
	c0,0,224.7,85.2,234.1,212.5"/>
</svg>
