<?xml version="1.0" encoding="utf-8"?>
<!-- Generator: Adobe Illustrator 18.1.0, SVG Export Plug-In . SVG Version: 6.00 Build 0)  -->
<!DOCTYPE svg PUBLIC "-//W3C//DTD SVG 1.1//EN" "http://www.w3.org/Graphics/SVG/1.1/DTD/svg11.dtd">
<svg version="1.1" id="Layer_1" xmlns="http://www.w3.org/2000/svg" xmlns:xlink="http://www.w3.org/1999/xlink" x="0px" y="0px" width="1048px" height="1048.2px"
	 viewBox="196.1 15.9 1048 1048.2" enable-background="new 196.1 15.9 1048 1048.2" xml:space="preserve">
<g>
	
		<linearGradient id="SVGID_1_" gradientUnits="userSpaceOnUse" x1="445.959" y1="1101.1425" x2="104.1037" y2="509.0316" gradientTransform="matrix(1.9636 0 0 -1.9636 180 2120.7273)">
		<stop  offset="0" style="stop-color:#FFFFFF"/>
		<stop  offset="0.5161" style="stop-color:#DDDFE0"/>
		<stop  offset="1" style="stop-color:#F1F1F2"/>
	</linearGradient>
	<path fill="url(#SVGID_1_)" d="M1122.7,1063.7H317.3c-66.8,0-121.2-54.4-121.2-121.2V137.1c0-66.6,54.6-121.2,121.2-121.2h805.7
		c66.6,0,121.2,54.6,121.2,121.2v805.5C1243.9,1009.3,1189.5,1063.7,1122.7,1063.7z"/>
</g>
<path opacity="0.62" fill="#FFFFFF" enable-background="new    " d="M1122.7,15.9H317.3c-66.8,0-121.2,54.4-121.2,121.2v298.9
	c139,58.1,324.6,93.5,528.2,93.5c199.5,0,381.5-34,519.6-89.9V137.1C1243.9,70.3,1189.5,15.9,1122.7,15.9z"/>
<path d="M480,605H345.1c-4.1,0-7.5-3.3-7.5-7.5V23.4c0-4.1,3.3-7.5,7.5-7.5H480c4.1,0,7.5,3.3,7.5,7.5v574.2
	C487.5,601.7,484.2,605,480,605z"/>
<path d="M776.9,605H642c-4.1,0-7.5-3.3-7.5-7.5V23.4c0-4.1,3.3-7.5,7.5-7.5h134.9c4.1,0,7.5,3.3,7.5,7.5v574.2
	C784.6,601.7,781.3,605,776.9,605z"/>
<path d="M1075.8,605H940.9c-4.1,0-7.5-3.3-7.5-7.5V23.4c0-4.1,3.3-7.5,7.5-7.5h134.9c4.1,0,7.5,3.3,7.5,7.5v574.2
	C1083.5,601.7,1079.9,605,1075.8,605z"/>
<line fill="none" stroke="#000000" stroke-width="3" stroke-miterlimit="10" x1="429.8" y1="1063.9" x2="429.8" y2="604.6"/>
<line fill="none" stroke="#000000" stroke-width="3" stroke-miterlimit="10" x1="710.8" y1="1064.1" x2="710.8" y2="604.8"/>
<line fill="none" stroke="#000000" stroke-width="3" stroke-miterlimit="10" x1="991.8" y1="1063.9" x2="991.8" y2="604.6"/>
<linearGradient id="SVGID_2_" gradientUnits="userSpaceOnUse" x1="118.4" y1="788.8" x2="118.4" y2="1055" gradientTransform="matrix(1.9636 0 0 -1.9636 180 2120.7273)">
	<stop  offset="0" style="stop-color:#FFFFFF"/>
	<stop  offset="0.2204" style="stop-color:#231F20"/>
</linearGradient>
<path opacity="0.66" fill="url(#SVGID_2_)" enable-background="new    " d="M447.3,571.8h-69.5c-10.2,0-18.5-8.2-18.5-18.5V67.5
	c0-10.2,8.2-18.5,18.5-18.5h69.5c10.2,0,18.5,8.2,18.5,18.5v486C465.7,563.6,457.5,571.8,447.3,571.8z"/>
<linearGradient id="SVGID_3_" gradientUnits="userSpaceOnUse" x1="269.7" y1="788.8" x2="269.7" y2="1055" gradientTransform="matrix(1.9636 0 0 -1.9636 180 2120.7273)">
	<stop  offset="0" style="stop-color:#FFFFFF"/>
	<stop  offset="0.2204" style="stop-color:#231F20"/>
</linearGradient>
<path opacity="0.66" fill="url(#SVGID_3_)" enable-background="new    " d="M744.3,571.8h-69.5c-10.2,0-18.5-8.2-18.5-18.5V67.5
	c0-10.2,8.2-18.5,18.5-18.5h69.5c10.2,0,18.5,8.2,18.5,18.5v486C762.8,563.6,754.4,571.8,744.3,571.8z"/>
<linearGradient id="SVGID_4_" gradientUnits="userSpaceOnUse" x1="421.9" y1="788.8" x2="421.9" y2="1055" gradientTransform="matrix(1.9636 0 0 -1.9636 180 2120.7273)">
	<stop  offset="0" style="stop-color:#FFFFFF"/>
	<stop  offset="0.2204" style="stop-color:#231F20"/>
</linearGradient>
<path opacity="0.66" fill="url(#SVGID_4_)" enable-background="new    " d="M1043.2,571.8h-69.5c-10.2,0-18.5-8.2-18.5-18.5V67.5
	c0-10.2,8.2-18.5,18.5-18.5h69.5c10.2,0,18.5,8.2,18.5,18.5v486C1061.5,563.6,1053.2,571.8,1043.2,571.8z"/>
</svg>
