<?xml version="1.0" encoding="utf-8"?>
<!-- Generator: Adobe Illustrator 18.1.0, SVG Export Plug-In . SVG Version: 6.00 Build 0)  -->
<!DOCTYPE svg PUBLIC "-//W3C//DTD SVG 1.1//EN" "http://www.w3.org/Graphics/SVG/1.1/DTD/svg11.dtd">
<svg version="1.1" id="Layer_1" xmlns="http://www.w3.org/2000/svg" xmlns:xlink="http://www.w3.org/1999/xlink" x="0px" y="0px" width="533.7px" height="533.7px"
	 viewBox="0 0 533.7 533.7" enable-background="new 0 0 533.7 533.7" xml:space="preserve">
<g>
	<linearGradient id="SVGID_1_" gradientUnits="userSpaceOnUse" x1="437.7566" y1="-29.2368" x2="95.8937" y2="562.8871">
		<stop  offset="0" style="stop-color:#FFFFFF"/>
		<stop  offset="0.4946" style="stop-color:#843E98"/>
		<stop  offset="1" style="stop-color:#F2F2F2"/>
	</linearGradient>
	<path fill="url(#SVGID_1_)" d="M472,533.7H61.7C27.8,533.7,0,505.9,0,472V61.7C0,27.8,27.8,0,61.7,0H472
		c33.9,0,61.7,27.8,61.7,61.7V472C533.7,505.9,505.9,533.7,472,533.7z"/>
</g>
<path opacity="0.29" fill="#FFFFFF" d="M472,0H61.7C27.8,0,0,27.8,0,61.7v152.2c70.8,29.6,165.3,47.6,269,47.6
	c101.6,0,194.3-17.3,264.6-45.8v-154C533.7,27.8,505.9,0,472,0z"/>
<g>
	<path fill="#FFFFFF" d="M437.5,268.6c0,0,2.1,48.7,12.1,51.6s14.2,8.7,6.2,12.5c-7.9,3.7-9.2,9.2-26.6,7.1
		c-17.5-2.1-49.9-35.4-86.2-27.5c-7.5,34.1-13.7,36.2-10,50.8c12.1,11.7,15.8,20.8,15.8,20.8s-22.1,5.8-29.5-3.7
		c-7.5-9.6-10.4-15.4-12.9-36.2c-2.5-20.8-10.8-38.7-28.3-38.7c-17.5,0-55.8,1.7-95.7-11.2c-20.8,26.2-22.5,50.8-19.6,59.9
		s17.9,27.9,17.9,27.9s-16.2,12.5-34.5-9.6c3.7-32.9-13.7-36.2-13.3-50.4s3.3-23.7-12.9-44.5c-16.2-20.8,7.5-75.3,36.2-81.6
		c28.7-6.2,112-23.7,191,9.6c69.5,40.4,67.4,41.2,88.6,40.8c21.2-0.4,32.6-2.5,27.3,1.7C457.9,252,436.9,259.4,437.5,268.6z"/>
	<g>
		<path fill="#FFFFFF" d="M80.9,197.7c0,0,0.2,0.5,0.7,1.5c0.5,1,1.3,2.4,2.3,4.2c1.1,1.8,2.4,3.9,4.1,6.2c1.7,2.2,3.9,4.7,6.6,6.7
			c2.6,2,6,3.4,9.3,2.9c1.6-0.2,3.3-0.9,4.8-1.9l0.6-0.4l0.6-0.4c0.4-0.3,0.8-0.6,1.1-0.9c0.4-0.3,0.7-0.7,1.1-1l0.5-0.5l0.5-0.6
			l1-1.2l0.1-0.1l0,0c-0.1,0.1,0,0,0,0l0.1-0.1l0.3-0.3l0.5-0.7c0.3-0.4,0.7-0.9,1-1.3l0.9-1.3c1.1-1.7,2.2-3.6,2.8-5.4
			c0.6-1.8,0.6-3.5,0.2-4.6c-0.2-0.5-0.6-1-1-1.4c-0.5-0.4-1.1-0.8-1.9-1.1c-3.1-1.2-7.5-0.8-10.5,0.7c-0.4,0.2-0.7,0.4-1.1,0.6
			c-0.3,0.2-0.7,0.4-0.9,0.7c-0.1,0.1-0.3,0.2-0.4,0.4c-0.1,0.1-0.2,0.2-0.3,0.4c-0.1,0.1-0.2,0.2-0.3,0.4l-0.1,0.2l0,0l0,0
			c-0.2,0.4,0.3-0.5,0.2-0.4l-0.1,0.2l-0.4,0.8c-0.1,0.2,0,0.1,0,0.1c0,0,0,0,0.1,0c0,0,0,0,0,0c0,0,0,0.1,0,0.1
			c0,0.1,0,0.2-0.1,0.3c0,0.5,0,1.1,0.2,1.8c0.2,1.5,0.9,3.1,1.6,4.7c0.8,1.6,1.7,3.2,2.7,4.7c2,3,4.4,5.7,6.7,8
			c2.4,2.3,4.8,4,7,5.3c2.3,1.3,4.4,1.9,6.3,2.1c1.9,0.2,3.3-0.1,4.4-0.3c1-0.3,1.6-0.5,1.6-0.5l0.1,0c0.3-0.1,0.6,0.1,0.6,0.3
			c0.1,0.2,0,0.4-0.1,0.5c0,0-0.4,0.4-1.4,1.3c-1,0.7-2.5,1.8-4.9,2.3c-0.6,0.1-1.2,0.2-1.9,0.3c-0.7,0-1.4,0.1-2.1,0.1
			c-1.4-0.1-3-0.2-4.6-0.6c-3.2-0.8-6.6-2.2-9.9-4.4c-3.3-2.1-6.6-5-9.5-8.5c-1.5-1.7-2.9-3.7-4.1-5.9c-1.2-2.2-2.2-4.7-2.8-7.7
			c-0.3-1.5-0.3-3.2-0.1-4.9c0.1-0.5,0.2-0.9,0.3-1.4c0.1-0.2,0.1-0.4,0.2-0.7c0.1-0.3,0.2-0.6,0.3-0.8c0.1-0.3,0.2-0.6,0.4-0.8
			c0.1-0.2,0.3-0.6,0.4-0.7l0.5-0.7l0.1-0.2c-0.1,0.1,0.5-0.8,0.3-0.4l0.1-0.1l0.1-0.1l0.4-0.5c0.3-0.3,0.6-0.7,0.9-0.9
			c0.6-0.6,1.3-1.1,2-1.5c0.7-0.5,1.4-0.8,2.1-1.2c0.7-0.3,1.4-0.7,2.1-0.9c2.9-1,5.7-1.4,8.7-1.3c1.4,0,2.9,0.2,4.4,0.5
			c1.5,0.3,2.9,0.8,4.3,1.5c1.4,0.7,2.8,1.6,4,2.9c1.2,1.3,2.2,2.9,2.7,4.6c0.1,0.4,0.2,0.9,0.3,1.3c0.1,0.4,0.1,0.9,0.2,1.3
			c0,0.4,0,0.9,0,1.3l-0.1,1.2l-0.1,0.6l-0.1,0.6l-0.3,1.1c-0.2,0.7-0.5,1.4-0.7,2.1c-1.1,2.6-2.6,4.7-4.1,6.7l-1.2,1.5
			c-0.4,0.5-0.8,0.9-1.2,1.3l-0.6,0.6l-0.3,0.3l-0.1,0.1l-0.1,0.1l0,0l-0.2,0.2c-0.4,0.4-0.9,0.8-1.3,1.3l-0.7,0.6l-0.7,0.6
			c-0.5,0.4-1,0.8-1.4,1.1c-0.5,0.4-1,0.7-1.5,1l-0.8,0.5l-0.8,0.4c-0.6,0.3-1.1,0.6-1.7,0.8c-0.6,0.2-1.2,0.4-1.7,0.6
			c-0.6,0.2-1.2,0.3-1.8,0.4c-0.6,0.1-1.2,0.1-1.8,0.2c-2.5,0.1-4.8-0.5-6.8-1.4c-2-0.9-3.7-2.1-5.1-3.4c-1.4-1.3-2.7-2.6-3.7-4
			c-1.1-1.3-1.9-2.7-2.7-3.9c-1.6-2.6-2.7-4.9-3.6-6.8c-0.9-1.9-1.5-3.5-1.8-4.6c-0.4-1.1-0.6-1.7-0.6-1.7l0,0
			c-0.1-0.3,0.1-0.5,0.3-0.6C80.5,197.3,80.8,197.5,80.9,197.7z"/>
	</g>
</g>
<rect x="446.6" y="324.9" transform="matrix(0.5423 0.8402 -0.8402 0.5423 484.4742 -224.517)" fill="#FFFFFF" width="3.5" height="15"/>
</svg>
